Coordinates
version=1
nRows=49
nColumns=12
inDegrees=yes

Units are S.I. units (second, meters, Newtons, ...)
Angles are in degrees

endheader
time	SC_y	SC_z	SC_x	AC_y	AC_z	AC_x	GH_y	GH_z	GH_yy	EL_x	PS_y
       0.0              -56.99         -4.038          4.854          37.07         -2.871          6.423          78.73          75.43         -2.208          28.77          80.96
   0.03407              -56.99         -4.036          4.855          37.08         -2.872          6.422          78.71          75.43         -2.232          28.78          80.96
   0.06814              -56.98         -4.034          4.856          37.08         -2.873          6.422          78.68          75.43         -2.257          28.78          80.95
    0.1022              -56.98         -4.032          4.857          37.08         -2.875          6.421          78.66          75.43         -2.283          28.79          80.95
    0.1363              -56.98         -4.029          4.858          37.08         -2.877           6.42          78.63          75.43         -2.312          28.79          80.95
    0.1703              -56.98         -4.026           4.86          37.09         -2.878          6.419          78.61          75.43         -2.342           28.8          80.94
    0.2044              -56.98         -4.023          4.861          37.09          -2.88          6.418          78.58          75.43         -2.374           28.8          80.94
    0.2385              -56.98          -4.02          4.862          37.09         -2.882          6.417          78.55          75.43         -2.409          28.81          80.93
    0.2726              -56.98         -4.017          4.864           37.1         -2.884          6.416          78.52          75.43         -2.446          28.82          80.93
    0.3066              -56.98         -4.013          4.866           37.1         -2.886          6.414          78.48          75.44         -2.485          28.82          80.92
    0.3407              -56.97          -4.01          4.867           37.1         -2.889          6.413          78.44          75.44         -2.528          28.83          80.92
    0.3748              -56.97         -4.005          4.869          37.11         -2.892          6.412           78.4          75.44         -2.574          28.84          80.91
    0.4088              -56.97         -4.001          4.871          37.11         -2.894           6.41          78.36          75.44         -2.623          28.85           80.9
    0.4429              -56.97         -3.996          4.874          37.12         -2.897          6.408          78.31          75.44         -2.677          28.86          80.89
     0.477              -56.97         -3.991          4.876          37.12         -2.901          6.407          78.26          75.44         -2.734          28.87          80.89
     0.511              -56.96         -3.985          4.879          37.13         -2.904          6.405          78.21          75.45         -2.797          28.88          80.88
    0.5451              -56.96         -3.979          4.881          37.13         -2.908          6.403          78.15          75.45         -2.865          28.89          80.87
    0.5792              -56.96         -3.973          4.884          37.14         -2.912            6.4          78.08          75.45         -2.939           28.9          80.86
    0.6132              -56.95         -3.965          4.888          37.15         -2.917          6.398          78.01          75.46         -3.021          28.92          80.85
    0.6473              -56.95         -3.957          4.892          37.16         -2.922          6.395          77.93          75.46         -3.109          28.93          80.83
    0.6814              -56.95         -3.949          4.896          37.16         -2.927          6.392          77.84          75.46         -3.207          28.95          80.82
    0.7154              -56.94         -3.939            4.9          37.17         -2.934          6.389          77.75          75.47         -3.314          28.97           80.8
    0.7495              -56.94         -3.928          4.905          37.19          -2.94          6.385          77.65          75.47         -3.432          28.99          80.79
    0.7836              -56.93         -3.917           4.91           37.2         -2.948          6.381          77.53          75.48         -3.563          29.01          80.77
    0.8177              -56.93         -3.903          4.916          37.21         -2.956          6.376           77.4          75.48         -3.709          29.04          80.75
    0.8517              -56.92         -3.889          4.923          37.23         -2.965          6.371          77.26          75.49         -3.872          29.07          80.72
    0.8858              -56.91         -3.872          4.931          37.24         -2.976          6.365           77.1          75.49         -4.054           29.1           80.7
    0.9199               -56.9         -3.854          4.939          37.26         -2.987          6.359          76.92           75.5          -4.26          29.14          80.67
    0.9539              -56.89         -3.833          4.949          37.28           -3.0          6.352          76.71          75.51         -4.491          29.18          80.63
     0.988              -56.88          -3.81           4.96          37.31         -3.015          6.344          76.48          75.52         -4.754          29.22           80.6
     1.022              -56.87         -3.783          4.972          37.33         -3.032          6.334          76.21          75.53         -5.055          29.28          80.55
     1.056              -56.86         -3.752          4.987          37.36         -3.052          6.323          75.91          75.54         -5.399          29.34          80.51
      1.09              -56.84         -3.716          5.003           37.4         -3.075          6.311          75.56          75.56         -5.797          29.41          80.45
     1.124              -56.82         -3.674          5.022          37.44         -3.101          6.297          75.15          75.57          -6.26          29.49          80.38
     1.158               -56.8         -3.626          5.045          37.49         -3.132           6.28          74.67          75.59         -6.801          29.58           80.3
     1.192              -56.77         -3.568          5.071          37.55         -3.168           6.26          74.11          75.62         -7.439          29.69          80.21
     1.226              -56.74           -3.5          5.103          37.62         -3.211          6.236          73.44          75.64         -8.196          29.83          80.11
     1.261              -56.71         -3.419           5.14           37.7         -3.262          6.208          72.64          75.68         -9.105          29.99          79.98
     1.295              -56.66          -3.32          5.186           37.8         -3.325          6.173          71.67          75.72          -10.2          30.18          79.82
     1.329              -56.61         -3.199          5.241          37.92         -3.401          6.131          70.48          75.77         -11.55          30.42          79.63
     1.363              -56.54          -3.05           5.31          38.07         -3.495           6.08          69.02          75.83          -13.2          30.71          79.39
     1.397              -56.46         -2.864          5.396          38.26         -3.612          6.015          67.19           75.9         -15.27          31.07          79.09
     1.431              -56.35         -2.631          5.504           38.5          -3.76          5.934           64.9           76.0         -17.87          31.53          78.72
     1.465              -56.22         -2.333          5.641           38.8         -3.948          5.831          61.97          76.12         -21.18          32.11          78.25
     1.499              -56.05         -1.952          5.817          39.18         -4.189          5.698          58.23          76.27         -25.42          32.86          77.64
     1.533              -55.83         -1.464          6.042          39.68         -4.497          5.528          53.44          76.47         -30.85          33.81          76.87
     1.567              -55.55          -0.84           6.33          40.31         -4.892          5.312          47.31          76.73          -37.8          35.03          75.88
     1.601              -55.19       -0.05541          6.692           41.1         -5.387          5.039           39.6          77.04         -46.53          36.57          74.63
     1.635              -54.76         0.9007          7.134          42.07         -5.991          4.707          30.21          77.43         -57.17          38.44          73.11
